<svg width="30.000000" height="30.000000" viewBox="0 0 30 30" fill="none" xmlns="http://www.w3.org/2000/svg" xmlns:xlink="http://www.w3.org/1999/xlink">
	<defs>
		<clipPath id="clip1_382">
			<rect width="20.000000" height="20.000000" transform="translate(5.000000 5.000000)" fill="white" fill-opacity="0"/>
		</clipPath>
	</defs>
	<g opacity="0.400000">
		<rect width="20.000000" height="20.000000" transform="translate(5.000000 5.000000)" fill="#FFFFFF" fill-opacity="0"/>
		<g clip-path="url(#clip1_382)">
			<path d="M21.66 8.33C22.58 8.33 23.33 9.07 23.33 10L23.33 10.83C23.33 11.75 22.58 12.5 21.66 12.5L8.33 12.5C7.41 12.5 6.66 11.75 6.66 10.83L6.66 10C6.66 9.07 7.41 8.33 8.33 8.33L21.66 8.33Z" stroke="#FFFFFF" stroke-opacity="1.000000" stroke-width="2.000000" stroke-linejoin="round"/>
			<path d="M8.33 12.5L8.33 20C8.33 20.44 8.5 20.86 8.82 21.17C9.13 21.49 9.55 21.66 9.99 21.66L19.99 21.66C20.44 21.66 20.86 21.49 21.17 21.17C21.49 20.86 21.66 20.44 21.66 20L21.66 12.5" stroke="#FFFFFF" stroke-opacity="1.000000" stroke-width="2.000000" stroke-linejoin="round" stroke-linecap="round"/>
			<path d="M13.33 15.83L16.66 15.83" stroke="#FFFFFF" stroke-opacity="1.000000" stroke-width="2.000000" stroke-linejoin="round" stroke-linecap="round"/>
		</g>
		<rect rx="14.500000" width="29.000000" height="29.000000" transform="translate(0.500000 0.500000)" stroke="#FFFFFF" stroke-opacity="1.000000" stroke-width="1.000000"/>
	</g>
</svg>
