<svg width="179.794678" height="25.376007" viewBox="0 0 179.795 25.376" fill="none" xmlns="http://www.w3.org/2000/svg" xmlns:xlink="http://www.w3.org/1999/xlink">
	<defs/>
	<path id="Personal Journal" d="M82.67 19.91Q82.67 18.77 83.22 16.71C83.58 15.33 84.09 13.71 84.75 11.88Q86.36 7.48 87.77 4.57C88.72 2.61 89.65 1.09 90.55 0C90.76 0.03 91.01 0.12 91.3 0.26C91.62 0.39 91.92 0.55 92.21 0.72C92.51 0.88 92.77 1.04 92.99 1.22C93.24 1.39 93.39 1.53 93.46 1.63C92.11 3.23 90.92 4.94 89.9 6.78C88.88 8.62 87.94 10.72 87.09 13.1C86.36 15.14 85.81 16.99 85.43 18.64Q84.86 21.08 84.86 22.72L84.86 23.27C84.86 23.33 84.86 23.4 84.88 23.47C84.64 23.44 84.43 23.38 84.26 23.29C84.08 23.2 83.97 23.1 83.92 22.98C83.88 22.89 83.79 22.76 83.63 22.59C83.48 22.43 83.34 22.31 83.22 22.23C83.06 22.12 82.93 21.85 82.83 21.42C82.72 20.97 82.67 20.47 82.67 19.91ZM169 19.91C169 19.15 169.18 18.08 169.55 16.71C169.91 15.33 170.42 13.71 171.08 11.88C172.15 8.95 173.16 6.51 174.1 4.57C175.05 2.61 175.98 1.09 176.88 0C177.09 0.03 177.34 0.12 177.63 0.26Q177.82 0.34 178 0.43L178 0.43L178.01 0.43Q178.28 0.57 178.54 0.72C178.84 0.88 179.1 1.04 179.32 1.22C179.56 1.39 179.72 1.53 179.79 1.63C178.44 3.23 177.25 4.94 176.23 6.78C175.21 8.62 174.27 10.72 173.42 13.1C172.69 15.14 172.14 16.99 171.76 18.64C171.37 20.27 171.18 21.63 171.18 22.72L171.18 23.27C171.18 23.33 171.19 23.4 171.21 23.47C170.97 23.44 170.76 23.38 170.59 23.29C170.41 23.2 170.3 23.1 170.25 22.98C170.21 22.89 170.12 22.76 169.96 22.59C169.81 22.43 169.67 22.31 169.55 22.23C169.39 22.12 169.26 21.85 169.16 21.42C169.05 20.97 169 20.47 169 19.91ZM104.89 2.36C105.55 2.36 106.24 2.48 106.95 2.73Q108.01 3.09 108.82 3.66C108.64 4.54 108.48 5.34 108.32 6.05C108.19 6.76 108.06 7.41 107.93 8C107.81 8.57 107.69 9.1 107.57 9.59C107.47 10.06 107.36 10.5 107.26 10.92Q106.63 13.26 105.96 15.15C105.52 16.4 105.06 17.53 104.55 18.53C104.07 19.54 103.55 20.43 102.99 21.21C102.46 21.99 101.88 22.68 101.25 23.27C100.65 23.84 100.04 24.31 99.43 24.67C98.82 25.03 98.26 25.27 97.74 25.37C97.05 25.37 96.41 25.29 95.82 25.14C95.23 24.98 94.72 24.76 94.28 24.49C93.87 24.23 93.54 23.91 93.3 23.53C93.07 23.16 92.96 22.75 92.96 22.3C92.96 21.82 93.08 21.21 93.32 20.48C93.56 19.74 93.94 18.86 94.44 17.86C94.65 17.87 94.89 17.93 95.17 18.01C95.44 18.1 95.72 18.2 96 18.33C96.28 18.45 96.53 18.59 96.75 18.74C96.98 18.88 97.14 19.02 97.25 19.16C96.69 19.73 96.24 20.36 95.9 21.06C95.55 21.73 95.38 22.32 95.38 22.82C95.38 23.12 95.43 23.38 95.53 23.6C95.65 23.85 95.85 24.06 96.13 24.25Q97.72 23.66 99.22 22.02C100.23 20.94 101.12 19.6 101.9 17.99Q102.6 16.56 103.18 14.71C103.56 13.48 103.88 12.25 104.14 11.02Q104.55 9.15 104.76 7.46C104.92 6.31 105 5.35 105 4.57Q105 4.39 104.97 4.08Q104.97 3.74 104.94 3.4Q104.94 3.04 104.92 2.75C104.9 2.56 104.89 2.43 104.89 2.36ZM16.95 7.56C16.95 8.51 16.7 9.42 16.22 10.29C15.75 11.16 15.11 11.92 14.3 12.58Q13.1 13.54 11.46 14.11C10.39 14.49 9.24 14.69 8.03 14.69Q7.38 14.69 6.99 14.53C6.75 14.41 6.47 14.18 6.16 13.85Q4.86 16.69 4.03 19.08Q3.22 21.45 2.75 23.68C2.09 23.53 1.56 23.25 1.14 22.85Q0.52 22.28 0 21.39C0.17 21.06 0.38 20.63 0.62 20.09C0.86 19.56 1.16 18.9 1.5 18.12Q2.02 16.92 2.7 15.28Q3.4 13.62 4.34 11.41C4.61 10.73 4.86 10.14 5.07 9.64C5.27 9.14 5.46 8.67 5.61 8.24C5.77 7.79 5.91 7.34 6.03 6.91C6.17 6.48 6.3 6 6.44 5.48Q5.22 5.87 4.18 6.39Q3.17 6.91 2.49 7.48C2.34 7.38 2.17 7.22 2 7.01Q1.76 6.7 1.56 6.34C1.42 6.08 1.29 5.82 1.19 5.56C1.09 5.3 1.03 5.07 1.01 4.86Q1.76 4.34 2.88 3.89C3.63 3.6 4.42 3.35 5.27 3.14Q6.55 2.8 7.9 2.62Q9.28 2.44 10.53 2.44Q12.01 2.44 13.2 2.83Q14.4 3.19 15.23 3.87Q15.79 4.33 16.18 4.9L16.18 4.9Q16.36 5.18 16.51 5.48Q16.51 5.48 16.51 5.49Q16.95 6.42 16.95 7.56ZM12.32 4.44C11.66 4.44 10.98 4.49 10.29 4.6L10.6 5.07C10.43 5.29 10.21 5.63 9.95 6.08C9.69 6.53 9.41 7.08 9.09 7.72Q8.63 8.65 8.06 9.82C7.69 10.6 7.3 11.43 6.89 12.29C8.24 12.29 9.47 12.17 10.58 11.93C11.69 11.67 12.63 11.32 13.41 10.89C14.21 10.44 14.82 9.92 15.26 9.33Q15.74 8.69 15.88 7.99Q15.93 7.71 15.93 7.43C15.93 6.53 15.63 5.81 15.02 5.27C14.42 4.72 13.52 4.44 12.32 4.44ZM44.95 11.23C44.93 11.56 44.87 11.9 44.77 12.27C44.68 12.61 44.57 12.93 44.43 13.23C44.29 13.51 44.14 13.74 43.99 13.93C43.83 14.12 43.68 14.22 43.54 14.22C43.35 14.2 43.24 14.07 43.21 13.83C43.21 13.78 43.22 13.7 43.26 13.59C43.31 13.47 43.36 13.34 43.41 13.2C43.47 13.06 43.51 12.93 43.54 12.79C43.6 12.65 43.62 12.53 43.62 12.42C43.62 12.18 43.56 11.98 43.44 11.83C43.34 11.65 43.19 11.57 43 11.57C42.31 11.57 41.78 12 41.41 12.87C41.05 13.73 40.87 15.01 40.87 16.69Q40.87 16.95 40.89 17C41.26 16.98 41.58 16.97 41.85 16.97C42.15 16.96 42.44 16.95 42.71 16.95C42.73 16.98 42.74 17.05 42.74 17.16C42.74 17.31 42.7 17.42 42.63 17.49C42.24 17.58 41.92 17.66 41.67 17.73C41.45 17.78 41.27 17.83 41.15 17.88C41.03 17.94 40.95 18 40.92 18.07C40.9 18.12 40.89 18.2 40.89 18.3L40.89 18.71C40.91 18.85 40.92 19.03 40.92 19.24C40.92 20.69 40.52 21.86 39.72 22.75Q39.51 22.99 39.27 23.19L39.27 23.19Q38.17 24.11 36.45 24.28C36.2 24.26 35.95 24.19 35.69 24.07C35.43 23.95 35.18 23.79 34.94 23.6C34.71 23.41 34.51 23.2 34.34 22.95C34.17 22.73 34.05 22.49 33.98 22.25C33.98 21.59 34.12 20.97 34.39 20.38C34.67 19.77 35.04 19.24 35.51 18.79C36 18.33 36.56 17.95 37.2 17.68C37.86 17.38 38.57 17.21 39.33 17.16C39.33 16.72 39.29 16.3 39.2 15.88C39.12 15.47 39.02 15.07 38.92 14.69C38.83 14.29 38.74 13.91 38.66 13.54C38.57 13.16 38.53 12.79 38.53 12.42Q38.53 12.27 38.54 12.11Q38.59 11.57 38.81 11.05C39 10.58 39.25 10.15 39.57 9.77C39.88 9.37 40.24 9.03 40.66 8.76C41.07 8.48 41.51 8.29 41.96 8.18C42.15 8.24 42.4 8.39 42.71 8.65C43.04 8.9 43.36 9.17 43.67 9.48C43.99 9.8 44.26 10.12 44.51 10.45C44.75 10.76 44.9 11.02 44.95 11.23ZM60.66 8.97Q61.33 9.17 61.93 9.9C62.33 10.37 62.62 10.89 62.81 11.46C62.62 11.93 62.33 12.49 61.93 13.15Q61.33 14.14 60.73 15.18C60.34 15.86 59.97 16.51 59.64 17.13C59.33 17.74 59.15 18.24 59.1 18.64C59.37 18.34 59.68 18 60.01 17.62C60.35 17.22 60.68 16.83 60.99 16.45C61.32 16.05 61.63 15.7 61.9 15.39C62.18 15.06 62.4 14.82 62.55 14.66C62.88 14.31 63.27 13.91 63.72 13.46C64.17 13 64.64 12.56 65.13 12.16C65.63 11.75 66.13 11.4 66.64 11.12C67.14 10.83 67.6 10.68 68.01 10.68C68.46 10.68 68.84 10.84 69.13 11.15C69.44 11.44 69.69 11.76 69.86 12.09C69.86 12.12 69.79 12.17 69.65 12.24C69.53 12.29 69.35 12.46 69.11 12.74C68.86 13.05 68.59 13.48 68.27 14.04C67.98 14.57 67.68 15.16 67.39 15.8C67.11 16.43 66.88 17.07 66.69 17.73C66.5 18.39 66.4 18.98 66.4 19.52C66.4 19.95 66.45 20.23 66.56 20.35C66.68 20.47 66.84 20.54 67.05 20.54C67.24 20.54 67.44 20.49 67.65 20.41C67.86 20.32 68.02 20.28 68.14 20.28C68.21 20.31 68.26 20.39 68.3 20.51Q68.38 20.67 68.38 20.8C68.24 20.92 68.07 21.04 67.88 21.16Q67.6 21.34 67.29 21.5C67.08 21.6 66.87 21.69 66.66 21.76Q66.38 21.86 66.14 21.86C65.64 21.86 65.22 21.78 64.89 21.63C64.58 21.49 64.33 21.3 64.14 21.06C63.97 20.81 63.85 20.53 63.78 20.2C63.71 19.85 63.67 19.49 63.67 19.11C63.67 18.9 63.69 18.66 63.72 18.4C63.76 18.14 63.83 17.84 63.93 17.49C64.04 17.13 64.18 16.7 64.37 16.22C64.56 15.72 64.81 15.12 65.1 14.43C65.07 14.43 64.83 14.55 64.4 14.79C63.97 15.03 63.5 15.4 63 15.91C62.18 16.69 61.44 17.46 60.79 18.22C60.14 18.98 59.49 19.83 58.81 20.77C58.43 21.31 58.09 21.76 57.8 22.12C57.52 22.5 57.28 22.75 57.07 22.88C56.7 22.67 56.44 22.37 56.26 21.99C56.09 21.63 55.96 21.25 55.87 20.85C55.87 20.52 55.92 20.1 56 19.6C56.11 19.1 56.24 18.54 56.39 17.94Q56.65 17 57.02 15.99C57.26 15.31 57.53 14.63 57.82 13.96C58.48 12.43 59.08 11.24 59.62 10.37C60.17 9.5 60.52 9.03 60.66 8.97ZM146.98 8.97Q147.66 9.17 148.26 9.9C148.66 10.37 148.95 10.89 149.14 11.46C148.95 11.93 148.66 12.49 148.26 13.15Q147.66 14.14 147.06 15.18C146.66 15.86 146.3 16.51 145.97 17.13C145.66 17.74 145.48 18.24 145.42 18.64C145.7 18.34 146 18 146.33 17.62C146.68 17.22 147.01 16.83 147.32 16.45C147.65 16.05 147.95 15.7 148.23 15.39C148.51 15.06 148.73 14.82 148.88 14.66C149.21 14.31 149.6 13.91 150.05 13.46C150.5 13 150.97 12.56 151.46 12.16Q152.21 11.54 152.96 11.12C153.47 10.83 153.93 10.68 154.34 10.68C154.79 10.68 155.17 10.84 155.46 11.15C155.77 11.44 156.01 11.76 156.19 12.09C156.19 12.12 156.12 12.17 155.98 12.24C155.86 12.29 155.68 12.46 155.43 12.74C155.19 13.05 154.91 13.48 154.6 14.04C154.31 14.57 154.01 15.16 153.72 15.8C153.44 16.43 153.21 17.07 153.02 17.73Q152.73 18.71 152.73 19.52C152.73 19.95 152.78 20.23 152.89 20.35C153.01 20.47 153.17 20.54 153.38 20.54C153.57 20.54 153.77 20.49 153.98 20.41C154.19 20.32 154.35 20.28 154.47 20.28C154.54 20.31 154.59 20.39 154.63 20.51Q154.71 20.67 154.71 20.8C154.57 20.92 154.4 21.04 154.21 21.16C154.02 21.28 153.82 21.39 153.61 21.5C153.41 21.6 153.2 21.69 152.99 21.76C152.8 21.83 152.63 21.86 152.47 21.86C151.97 21.86 151.55 21.78 151.22 21.63C150.91 21.49 150.66 21.3 150.47 21.06C150.29 20.81 150.17 20.53 150.1 20.2C150.03 19.85 150 19.49 150 19.11C150 18.9 150.02 18.66 150.05 18.4C150.09 18.14 150.16 17.84 150.26 17.49C150.36 17.13 150.51 16.7 150.7 16.22C150.89 15.72 151.14 15.12 151.43 14.43C151.39 14.43 151.16 14.55 150.73 14.79C150.29 15.03 149.83 15.4 149.32 15.91C148.51 16.69 147.77 17.46 147.11 18.22C146.47 18.98 145.81 19.83 145.14 20.77C144.76 21.31 144.42 21.76 144.12 22.12C143.85 22.5 143.6 22.75 143.4 22.88C143.03 22.67 142.76 22.37 142.59 21.99C142.42 21.63 142.29 21.25 142.2 20.85Q142.2 20.35 142.33 19.6C142.43 19.1 142.56 18.54 142.72 17.94C142.89 17.31 143.1 16.66 143.34 15.99C143.59 15.31 143.86 14.63 144.15 13.96C144.81 12.43 145.41 11.24 145.94 10.37C146.5 9.5 146.85 9.03 146.98 8.97ZM25.27 21.06C25.36 20.55 25.51 19.89 25.72 19.08C25.94 18.25 26.2 17.37 26.5 16.45C26.79 15.52 27.1 14.58 27.43 13.65C27.76 12.71 28.08 11.87 28.39 11.12C28.62 10.59 28.82 10.17 28.99 9.88C29.17 9.56 29.36 9.3 29.56 9.1C29.81 9.13 30.06 9.19 30.32 9.28C30.58 9.36 30.83 9.47 31.07 9.59C31.32 9.71 31.53 9.84 31.72 9.98C31.91 10.1 32.06 10.22 32.16 10.34Q31.46 11.18 30.92 12.24C30.57 12.95 30.21 13.86 29.85 14.97C30.79 14.14 31.61 13.34 32.32 12.58C33.05 11.82 33.72 10.97 34.35 10.03C34.45 9.94 34.63 9.9 34.89 9.9C35.14 9.9 35.37 9.94 35.6 10.03C35.82 10.1 35.98 10.2 36.06 10.34C35.75 11.18 35.6 12 35.6 12.81C35.6 13.58 35.71 14.15 35.93 14.53C35.92 14.63 35.8 14.83 35.57 15.13C35.36 15.42 35.13 15.7 34.87 15.96C34.4 15.72 33.98 15.39 33.62 14.97C33.26 14.54 32.99 14.07 32.81 13.57C32 14.14 31.31 14.7 30.73 15.26C30.16 15.79 29.67 16.4 29.25 17.08C28.85 17.74 28.51 18.5 28.21 19.37C27.94 20.23 27.67 21.26 27.41 22.46C27.25 22.44 27.06 22.38 26.83 22.28C26.63 22.19 26.41 22.08 26.18 21.94C25.98 21.8 25.79 21.65 25.61 21.5C25.44 21.34 25.33 21.19 25.27 21.06ZM131.66 21.06C131.75 20.55 131.89 19.89 132.1 19.08C132.33 18.25 132.59 17.37 132.88 16.45C133.18 15.52 133.49 14.58 133.82 13.65C134.15 12.71 134.47 11.87 134.78 11.12C135.01 10.59 135.21 10.17 135.38 9.88C135.55 9.56 135.74 9.3 135.95 9.1C136.19 9.13 136.45 9.19 136.71 9.28C136.97 9.36 137.22 9.47 137.46 9.59C137.7 9.71 137.92 9.84 138.11 9.98C138.3 10.1 138.45 10.22 138.55 10.34Q137.85 11.18 137.3 12.24Q136.78 13.31 136.24 14.97Q137.64 13.72 138.71 12.58C139.44 11.82 140.11 10.97 140.74 10.03C140.84 9.94 141.02 9.9 141.28 9.9C141.52 9.9 141.76 9.94 141.98 10.03C142.21 10.1 142.37 10.2 142.45 10.34C142.14 11.18 141.98 12 141.98 12.81C141.98 13.58 142.1 14.15 142.32 14.53C142.3 14.63 142.18 14.83 141.96 15.13C141.75 15.42 141.52 15.7 141.25 15.96C140.79 15.72 140.37 15.39 140.01 14.97C139.64 14.54 139.38 14.07 139.2 13.57C138.39 14.14 137.69 14.7 137.12 15.26C136.55 15.79 136.06 16.4 135.64 17.08C135.24 17.74 134.89 18.5 134.6 19.37C134.32 20.23 134.05 21.26 133.79 22.46C133.64 22.44 133.45 22.38 133.22 22.28C133.01 22.19 132.8 22.08 132.57 21.94C132.36 21.8 132.17 21.65 132 21.5C131.83 21.34 131.71 21.19 131.66 21.06ZM126.51 21C126.18 20.73 125.96 20.38 125.83 19.96C125.73 19.55 125.68 19.19 125.68 18.9Q125.68 18.35 125.81 17.96C125.74 17.96 125.58 18.1 125.34 18.38C125.1 18.65 124.83 18.98 124.53 19.37C124.26 19.75 123.98 20.12 123.7 20.48C123.42 20.85 123.22 21.12 123.08 21.29Q122.74 21.65 122.43 21.86C122.24 22 122.08 22.08 121.96 22.1C121.68 22.08 121.39 22.02 121.08 21.91C120.78 21.83 120.5 21.7 120.22 21.52Q120.14 21.47 120.07 21.41Q119.77 21.19 119.52 20.9C119.33 20.66 119.2 20.38 119.13 20.07C119.13 19.58 119.13 19.18 119.15 18.87C119.19 18.56 119.25 18.22 119.33 17.86Q119.57 16.87 120.01 15.62C120.32 14.79 120.68 13.97 121.08 13.18C121.47 12.36 121.92 11.61 122.4 10.92C122.9 10.2 123.43 9.65 123.99 9.25C124.14 9.25 124.33 9.27 124.53 9.3C124.74 9.32 124.95 9.36 125.16 9.43C125.38 9.5 125.59 9.59 125.78 9.69C125.99 9.78 126.16 9.9 126.3 10.06Q126.07 10.32 125.11 11.8C124.48 12.79 123.78 14.21 123 16.06C122.91 16.25 122.81 16.53 122.69 16.9C122.57 17.26 122.45 17.64 122.32 18.04C122.2 18.44 122.1 18.83 122.01 19.21Q121.91 19.78 121.91 20.12Q121.91 20.33 121.96 20.43C122.01 20.5 122.06 20.55 122.09 20.59C122.35 20.48 122.68 20.2 123.08 19.73C123.48 19.26 124.03 18.54 124.74 17.57C124.92 17.33 125.11 17.05 125.34 16.74C125.58 16.43 125.83 16.1 126.07 15.75C126.31 15.39 126.54 15.01 126.74 14.63C126.97 14.25 127.15 13.87 127.29 13.49C127.36 13.28 127.45 13.04 127.55 12.76C127.67 12.47 127.81 12.16 127.97 11.85C128.14 11.54 128.33 11.23 128.54 10.92C128.76 10.59 129.02 10.28 129.32 10.01C129.54 10.01 129.79 10.03 130.05 10.08C130.31 10.14 130.55 10.2 130.77 10.29C131.02 10.36 131.22 10.45 131.4 10.55C131.57 10.64 131.7 10.73 131.79 10.84Q131.32 11.98 130.75 13.1Q130.18 14.22 129.68 15.31C129.35 16.02 129.08 16.73 128.85 17.44C128.62 18.15 128.51 18.85 128.51 19.52C128.51 19.89 128.54 20.21 128.59 20.48C128.66 20.74 128.73 20.97 128.8 21.16C128.87 21.33 128.93 21.48 128.98 21.6Q129.08 21.78 129.08 21.91C129.08 21.93 129.07 21.96 129.03 21.99C129.01 22.01 129 22.02 128.98 22.02C128.86 22.02 128.7 21.99 128.51 21.94C128.32 21.89 128.1 21.81 127.86 21.71C127.64 21.62 127.4 21.51 127.16 21.39C126.93 21.27 126.72 21.14 126.51 21ZM48.04 22.49C47.05 22.38 46.26 21.95 45.67 21.19C45.08 20.42 44.79 19.45 44.79 18.27C44.79 17.58 44.89 16.86 45.1 16.12C45.31 15.37 45.6 14.65 45.98 13.96C46.36 13.25 46.81 12.58 47.33 11.96C47.85 11.33 48.42 10.79 49.02 10.34C49.98 9.63 50.87 9.28 51.7 9.28C52.26 9.57 52.8 10.19 53.34 11.12L53.57 11.12Q53.68 11.1 53.81 11.1C54.73 11.1 55.19 11.91 55.19 13.54C55.19 14.63 55 15.67 54.64 16.66C54.29 17.63 53.8 18.52 53.16 19.31C52.53 20.11 51.78 20.79 50.9 21.34C50.03 21.88 49.08 22.26 48.04 22.49ZM111.03 22.49Q110.22 22.4 109.58 22.02Q109.06 21.7 108.66 21.19C108.07 20.42 107.78 19.45 107.78 18.27C107.78 17.58 107.88 16.86 108.09 16.12C108.3 15.37 108.59 14.65 108.98 13.96C109.36 13.25 109.81 12.58 110.33 11.96C110.85 11.33 111.41 10.79 112.02 10.34C112.97 9.63 113.86 9.28 114.7 9.28C115.25 9.57 115.8 10.19 116.33 11.12L116.57 11.12C116.64 11.11 116.72 11.1 116.8 11.1C117.72 11.1 118.18 11.91 118.18 13.54Q118.18 14.84 117.84 16.04L117.84 16.04Q117.75 16.35 117.63 16.66C117.29 17.63 116.79 18.52 116.15 19.31C115.53 20.11 114.77 20.79 113.89 21.34C113.02 21.88 112.07 22.26 111.03 22.49ZM24.7 10.81C24.63 11.89 24.44 12.81 24.12 13.59C23.81 14.36 23.36 15.03 22.77 15.62C22.2 16.19 21.5 16.71 20.67 17.18C19.83 17.65 18.86 18.1 17.75 18.53C17.75 18.64 17.74 18.75 17.73 18.87L17.73 19.21C17.73 19.43 17.74 19.67 17.78 19.91C17.81 20.15 17.87 20.38 17.96 20.59C18.05 20.8 18.17 20.97 18.33 21.11C18.48 21.23 18.68 21.29 18.92 21.29Q19.05 21.29 19.18 21.28L19.18 21.28Q19.75 21.23 20.3 20.98C20.75 20.77 21.18 20.52 21.58 20.22C21.99 19.91 22.37 19.58 22.72 19.24C23.08 18.87 23.4 18.54 23.68 18.25C23.85 18.4 24 18.55 24.12 18.69C23.34 19.73 22.49 20.6 21.55 21.29C20.63 21.97 19.76 22.4 18.92 22.59C17.73 22.45 16.79 22.02 16.12 21.29C15.46 20.54 15.13 19.65 15.13 18.61Q15.13 17.54 15.41 16.45Q15.71 15.39 16.19 14.42Q16.22 14.37 16.25 14.32C16.61 13.63 17.03 12.98 17.49 12.37Q18.22 11.46 19.03 10.79Q19.86 10.11 20.72 9.72C21.31 9.46 21.89 9.33 22.46 9.33C23.26 9.43 24 9.93 24.7 10.81ZM79.45 11.07C79.63 11.07 79.83 11.11 80.05 11.18C80.3 11.23 80.51 11.31 80.7 11.41C80.89 11.5 81.05 11.59 81.17 11.7C81.31 11.8 81.38 11.89 81.38 11.98C81.03 12.71 80.71 13.45 80.42 14.19C80.12 14.92 79.87 15.62 79.66 16.3C79.45 16.97 79.29 17.61 79.17 18.2C79.06 18.78 79.01 19.3 79.01 19.73C79.01 20.21 79.06 20.62 79.17 20.95C79.27 21.26 79.45 21.49 79.69 21.63C79.48 21.77 79.21 21.88 78.88 21.97C78.55 22.05 78.26 22.1 78 22.1C77.06 22.1 76.59 21.45 76.59 20.17C76.59 19.18 76.92 17.83 77.58 16.12C77.24 16.91 76.84 17.67 76.39 18.38C75.94 19.07 75.48 19.69 75.01 20.22C74.54 20.76 74.06 21.2 73.58 21.55C73.11 21.88 72.68 22.08 72.28 22.15C71.64 22.11 71.12 21.81 70.72 21.24C70.32 20.65 70.12 19.9 70.12 19Q70.12 17.54 70.74 15.93C71.16 14.86 71.69 13.86 72.33 12.94C72.99 12.02 73.7 11.26 74.46 10.66C75.23 10.03 75.96 9.7 76.67 9.67Q76.93 9.75 77.24 9.98C77.47 10.14 77.68 10.32 77.87 10.53C78.08 10.73 78.25 10.95 78.39 11.18C78.53 11.38 78.61 11.57 78.62 11.72C77.93 11.83 77.21 12.16 76.46 12.74C75.74 13.31 75.07 14 74.46 14.82C73.87 15.61 73.39 16.47 73.01 17.39C72.63 18.31 72.43 19.17 72.43 19.96C72.43 20.29 72.56 20.5 72.8 20.59C73.3 20.48 73.88 20.06 74.54 19.31Q75.53 18.17 76.93 15.8C77.11 15.49 77.3 15.14 77.5 14.76Q77.84 14.19 78.18 13.57C78.41 13.15 78.62 12.74 78.83 12.32Q79.17 11.67 79.45 11.07ZM165.78 11.07C165.96 11.07 166.16 11.11 166.38 11.18C166.62 11.23 166.84 11.31 167.03 11.41C167.22 11.5 167.38 11.59 167.5 11.7C167.64 11.8 167.71 11.89 167.71 11.98C167.36 12.71 167.04 13.45 166.75 14.19C166.45 14.92 166.2 15.62 165.99 16.3C165.78 16.97 165.62 17.61 165.5 18.2C165.39 18.78 165.34 19.3 165.34 19.73C165.34 20.21 165.39 20.62 165.5 20.95C165.6 21.26 165.77 21.49 166.02 21.63C165.81 21.77 165.54 21.88 165.21 21.97C164.88 22.05 164.59 22.1 164.33 22.1C163.39 22.1 162.92 21.45 162.92 20.17Q162.92 18.69 163.91 16.12C163.56 16.91 163.17 17.67 162.72 18.38C162.26 19.07 161.81 19.69 161.34 20.22C160.87 20.76 160.39 21.2 159.91 21.55C159.44 21.88 159 22.08 158.61 22.15C157.97 22.11 157.45 21.81 157.05 21.24C156.65 20.65 156.45 19.9 156.45 19C156.45 18.03 156.66 17.01 157.07 15.93C157.49 14.86 158.02 13.86 158.66 12.94C159.32 12.02 160.03 11.26 160.79 10.66C161.55 10.03 162.29 9.7 163 9.67C163.17 9.72 163.37 9.82 163.57 9.98C163.8 10.14 164.01 10.32 164.2 10.53C164.41 10.73 164.58 10.95 164.72 11.18C164.86 11.38 164.93 11.57 164.95 11.72C164.26 11.83 163.54 12.16 162.79 12.74C162.07 13.31 161.4 14 160.79 14.82C160.2 15.61 159.72 16.47 159.34 17.39C158.95 18.31 158.76 19.17 158.76 19.96C158.76 20.29 158.88 20.5 159.13 20.59C159.63 20.48 160.21 20.06 160.87 19.31Q161.86 18.17 163.26 15.8C163.43 15.49 163.63 15.14 163.83 14.76C164.06 14.38 164.28 13.98 164.51 13.57C164.73 13.15 164.95 12.74 165.16 12.32C165.38 11.89 165.59 11.47 165.78 11.07ZM49.36 14.3C49.07 14.69 48.79 15.13 48.53 15.6C48.27 16.06 48.04 16.54 47.85 17.03C47.66 17.49 47.52 17.95 47.41 18.4C47.31 18.84 47.26 19.23 47.26 19.57C47.26 19.99 47.32 20.39 47.46 20.77C47.6 21.15 47.76 21.37 47.93 21.42C48.71 21.25 49.42 20.93 50.06 20.46C50.72 19.97 51.29 19.37 51.75 18.66C52.24 17.95 52.61 17.15 52.87 16.25C53.15 15.34 53.29 14.38 53.29 13.36C53.29 12.91 53.26 12.55 53.21 12.29C53.16 12.03 53.07 11.81 52.95 11.62C52.19 11.84 51.5 12.21 50.9 12.71C50.31 13.21 49.79 13.74 49.36 14.3ZM112.36 14.3C112.06 14.69 111.78 15.13 111.52 15.6Q111.13 16.3 110.85 17.03C110.66 17.49 110.51 17.95 110.41 18.4C110.3 18.84 110.25 19.23 110.25 19.57C110.25 19.99 110.32 20.39 110.46 20.77C110.6 21.15 110.75 21.37 110.93 21.42C111.71 21.25 112.42 20.93 113.06 20.46C113.72 19.97 114.28 19.37 114.75 18.66C115.23 17.95 115.61 17.15 115.87 16.25C116.14 15.34 116.28 14.38 116.28 13.36C116.28 12.91 116.26 12.55 116.2 12.29C116.15 12.03 116.07 11.81 115.94 11.62C115.18 11.84 114.5 12.21 113.89 12.71C113.3 13.21 112.79 13.74 112.36 14.3ZM22.9 11.67C22.43 11.74 21.95 11.93 21.45 12.24C20.94 12.55 20.47 12.97 20.02 13.49C19.58 14.01 19.18 14.62 18.82 15.31C18.45 16 18.17 16.75 17.96 17.54Q20.04 16.51 21.42 15Q22.52 13.77 22.81 12.37Q22.88 12.02 22.9 11.67ZM36.37 23.08C36.78 22.91 37.17 22.66 37.54 22.33C37.92 22 38.25 21.63 38.53 21.21C38.8 20.8 39.02 20.35 39.18 19.89C39.35 19.42 39.44 18.96 39.44 18.51C39.09 18.56 38.71 18.72 38.29 19Q37.67 19.39 37.12 19.96C36.76 20.33 36.46 20.71 36.21 21.11C35.97 21.51 35.85 21.85 35.85 22.15C35.85 22.53 36.02 22.84 36.37 23.08Z" fill="#FFFFFF" fill-opacity="1.000000" fill-rule="evenodd"/>
</svg>
