<svg width="18.000000" height="18.000000" viewBox="0 0 18 18" fill="none" xmlns="http://www.w3.org/2000/svg" xmlns:xlink="http://www.w3.org/1999/xlink">
	<desc>
			Created with Pixso.
	</desc>
	<defs>
		<clipPath id="clip1_287">
			<rect width="18.000000" height="18.000000" fill="white" fill-opacity="0"/>
		</clipPath>
	</defs>
	<g opacity="0.600000">
		<rect width="18.000000" height="18.000000" fill="#FFFFFF" fill-opacity="0"/>
		<g clip-path="url(#clip1_287)">
			<path d="M14.25 3C15.07 3 15.75 3.67 15.75 4.5L15.75 15C15.75 15.82 15.07 16.5 14.25 16.5L3.75 16.5C2.92 16.5 2.25 15.82 2.25 15L2.25 4.5C2.25 3.67 2.92 3 3.75 3L14.25 3Z" stroke="#FFFFFF" stroke-opacity="1.000000" stroke-width="2.000000" stroke-linejoin="round"/>
			<path d="M12 1.5L12 4.5" stroke="#FFFFFF" stroke-opacity="1.000000" stroke-width="2.000000" stroke-linejoin="round" stroke-linecap="round"/>
			<path d="M6 1.5L6 4.5" stroke="#FFFFFF" stroke-opacity="1.000000" stroke-width="2.000000" stroke-linejoin="round" stroke-linecap="round"/>
			<path d="M2.25 7.5L15.75 7.5" stroke="#FFFFFF" stroke-opacity="1.000000" stroke-width="2.000000" stroke-linejoin="round" stroke-linecap="round"/>
			<path d="M6 10.5L6 10.5" stroke="#FFFFFF" stroke-opacity="1.000000" stroke-width="2.000000" stroke-linejoin="round"/>
			<path d="M9 10.5L9 10.5" stroke="#FFFFFF" stroke-opacity="1.000000" stroke-width="2.000000" stroke-linejoin="round"/>
			<path d="M12 10.5L12 10.5" stroke="#FFFFFF" stroke-opacity="1.000000" stroke-width="2.000000" stroke-linejoin="round"/>
			<path d="M6 13.5L6 13.5" stroke="#FFFFFF" stroke-opacity="1.000000" stroke-width="2.000000" stroke-linejoin="round"/>
			<path d="M9 13.5L9 13.5" stroke="#FFFFFF" stroke-opacity="1.000000" stroke-width="2.000000" stroke-linejoin="round"/>
			<path d="M12 13.5L12 13.5" stroke="#FFFFFF" stroke-opacity="1.000000" stroke-width="2.000000" stroke-linejoin="round"/>
		</g>
	</g>
</svg>
